<svg width="130" height="24" viewBox="0 0 130 24" fill="none" xmlns="http://www.w3.org/2000/svg">
<path d="M9.06145 23.1079C5.26816 22.3769 -3.39077 20.6274 1.4173 5.06384C9.6344 6.09939 16.9728 14.0644 9.06145 23.1079Z" fill="url(#paint0_linear_1_33)"/>
<path d="M8.91928 23.0939C5.27642 21.2223 0.783709 4.20891 17.0071 0C20.7569 7.19341 19.6212 16.5452 8.91928 23.0939Z" fill="url(#paint1_linear_1_33)"/>
<path d="M8.91388 23.0788C8.73534 19.8817 10.1585 9.08525 23.5699 13.1107C23.1812 20.1229 18.984 26.4182 8.91388 23.0788Z" fill="url(#paint2_linear_1_33)"/>
<path d="M101.824 18.152V20H93.304V18.152H96.712V5.672H96.616L93.256 8.84V6.368L96.616 3.2H98.656V18.152H101.824ZM110.084 20.24C108.068 20.24 106.556 19.552 105.548 18.176C104.556 16.784 104.06 14.984 104.06 12.776V10.28C104.06 8.072 104.556 6.288 105.548 4.928C106.556 3.552 108.068 2.864 110.084 2.864C112.1 2.864 113.604 3.552 114.596 4.928C115.588 6.288 116.084 8.072 116.084 10.28V12.776C116.084 14.984 115.58 16.784 114.572 18.176C113.58 19.552 112.084 20.24 110.084 20.24ZM110.084 18.416C111.3 18.416 112.228 17.936 112.868 16.976C113.524 16.016 113.852 14.592 113.852 12.704V10.376C113.852 8.488 113.532 7.072 112.892 6.128C112.252 5.168 111.316 4.688 110.084 4.688C108.852 4.688 107.908 5.168 107.252 6.128C106.612 7.072 106.292 8.488 106.292 10.376V12.704C106.292 14.592 106.612 16.016 107.252 16.976C107.908 17.936 108.852 18.416 110.084 18.416ZM128.191 18.152V20H119.671V18.152H123.079V5.672H122.983L119.623 8.84V6.368L122.983 3.2H125.023V18.152H128.191Z" fill="#9F9FA9"/>
<path d="M40.032 5.072H35.088V20H33.024V5.072H28.08V3.2H40.032V5.072ZM42.7688 2.072H44.8328V9.632H45.0248C45.3448 8.896 45.8648 8.28 46.5848 7.784C47.3048 7.272 48.1848 7.016 49.2248 7.016C50.2968 7.016 51.1928 7.272 51.9128 7.784C52.6328 8.28 53.1608 8.944 53.4968 9.776C53.8488 10.592 54.0248 11.48 54.0248 12.44V20H51.9608V12.704C51.9608 11.456 51.6328 10.504 50.9768 9.848C50.3368 9.192 49.4808 8.864 48.4088 8.864C47.3848 8.864 46.5288 9.208 45.8408 9.896C45.1688 10.584 44.8328 11.52 44.8328 12.704V20H42.7688V2.072ZM68.4801 20H66.3921V17.6H66.2481C65.9121 18.336 65.3921 18.96 64.6881 19.472C64.0001 19.968 63.1521 20.216 62.1441 20.216C61.0881 20.216 60.2081 19.96 59.5041 19.448C58.8001 18.936 58.2801 18.272 57.9441 17.456C57.6241 16.64 57.4641 15.752 57.4641 14.792V7.352H59.5281V14.528C59.5281 15.76 59.8401 16.712 60.4641 17.384C61.0881 18.04 61.9041 18.368 62.9121 18.368C63.9681 18.368 64.8081 18.016 65.4321 17.312C66.0721 16.592 66.3921 15.664 66.3921 14.528V7.352H68.4801V20ZM77.2296 20.168C75.9336 20.168 74.8376 19.856 73.9416 19.232C73.0616 18.608 72.4056 17.792 71.9736 16.784C71.5416 15.776 71.3256 14.712 71.3256 13.592C71.3256 12.456 71.5416 11.392 71.9736 10.4C72.4056 9.392 73.0696 8.576 73.9656 7.952C74.8616 7.328 75.9576 7.016 77.2536 7.016C78.9496 7.016 80.3016 7.584 81.3096 8.72C82.3336 9.856 82.8456 11.488 82.8456 13.616V14.192H73.3896V14.36C73.3896 15.064 73.5496 15.728 73.8696 16.352C74.1896 16.976 74.6376 17.48 75.2136 17.864C75.7896 18.248 76.4536 18.44 77.2056 18.44C78.0216 18.44 78.7256 18.232 79.3176 17.816C79.9096 17.4 80.3496 16.84 80.6376 16.136H82.6776C82.3416 17.288 81.7096 18.248 80.7816 19.016C79.8696 19.784 78.6856 20.168 77.2296 20.168ZM80.8056 12.728C80.7416 11.288 80.3896 10.248 79.7496 9.608C79.1096 8.968 78.2696 8.648 77.2296 8.648C76.0936 8.648 75.1896 9.024 74.5176 9.776C73.8456 10.528 73.4856 11.512 73.4376 12.728H80.8056ZM76.3656 2.264H78.1656L81.3096 5.768H79.2456L77.3016 3.608H77.2056L75.2616 5.768H73.2216L76.3656 2.264ZM80.1576 2.768L82.5096 -1.528H84.7176L81.8136 2.768H80.1576Z" fill="#FAFAFA"/>
<defs>
<linearGradient id="paint0_linear_1_33" x1="3.77557" y1="5.91571" x2="5.23185" y2="21.5589" gradientUnits="userSpaceOnUse">
<stop stop-color="#18E299"/>
<stop offset="1" stop-color="#15803D"/>
</linearGradient>
<linearGradient id="paint1_linear_1_33" x1="12.1711" y1="-0.718425" x2="10.1897" y2="22.9832" gradientUnits="userSpaceOnUse">
<stop stop-color="#16A34A"/>
<stop offset="1" stop-color="#4ADE80"/>
</linearGradient>
<linearGradient id="paint2_linear_1_33" x1="23.1327" y1="15.353" x2="9.33841" y2="18.5196" gradientUnits="userSpaceOnUse">
<stop stop-color="#4ADE80"/>
<stop offset="1" stop-color="#0D9373"/>
</linearGradient>
</defs>
</svg>
