<svg width="130" height="24" viewBox="0 0 130 24" fill="none" xmlns="http://www.w3.org/2000/svg">
<path d="M9.06145 23.1079C5.26816 22.3769 -3.39077 20.6274 1.4173 5.06384C9.6344 6.09939 16.9728 14.0644 9.06145 23.1079Z" fill="url(#paint0_linear_1_32)"/>
<path d="M8.91928 23.0939C5.27642 21.2223 0.783709 4.20891 17.0071 0C20.7569 7.19341 19.6212 16.5452 8.91928 23.0939Z" fill="url(#paint1_linear_1_32)"/>
<path d="M8.91388 23.0788C8.73534 19.8817 10.1585 9.08525 23.5699 13.1107C23.1812 20.1229 18.984 26.4182 8.91388 23.0788Z" fill="url(#paint2_linear_1_32)"/>
<path d="M101.824 19.152V21H93.304V19.152H96.712V6.672H96.616L93.256 9.84V7.368L96.616 4.2H98.656V19.152H101.824ZM110.084 21.24C108.068 21.24 106.556 20.552 105.548 19.176C104.556 17.784 104.06 15.984 104.06 13.776V11.28C104.06 9.072 104.556 7.288 105.548 5.928C106.556 4.552 108.068 3.864 110.084 3.864C112.1 3.864 113.604 4.552 114.596 5.928C115.588 7.288 116.084 9.072 116.084 11.28V13.776C116.084 15.984 115.58 17.784 114.572 19.176C113.58 20.552 112.084 21.24 110.084 21.24ZM110.084 19.416C111.3 19.416 112.228 18.936 112.868 17.976C113.524 17.016 113.852 15.592 113.852 13.704V11.376C113.852 9.488 113.532 8.072 112.892 7.128C112.252 6.168 111.316 5.688 110.084 5.688C108.852 5.688 107.908 6.168 107.252 7.128C106.612 8.072 106.292 9.488 106.292 11.376V13.704C106.292 15.592 106.612 17.016 107.252 17.976C107.908 18.936 108.852 19.416 110.084 19.416ZM128.191 19.152V21H119.671V19.152H123.079V6.672H122.983L119.623 9.84V7.368L122.983 4.2H125.023V19.152H128.191Z" fill="#52525C"/>
<path d="M40.032 6.072H35.088V21H33.024V6.072H28.08V4.2H40.032V6.072ZM42.7688 3.072H44.8328V10.632H45.0248C45.3448 9.896 45.8648 9.28 46.5848 8.784C47.3048 8.272 48.1848 8.016 49.2248 8.016C50.2968 8.016 51.1928 8.272 51.9128 8.784C52.6328 9.28 53.1608 9.944 53.4968 10.776C53.8488 11.592 54.0248 12.48 54.0248 13.44V21H51.9608V13.704C51.9608 12.456 51.6328 11.504 50.9768 10.848C50.3368 10.192 49.4808 9.864 48.4088 9.864C47.3848 9.864 46.5288 10.208 45.8408 10.896C45.1688 11.584 44.8328 12.52 44.8328 13.704V21H42.7688V3.072ZM68.4801 21H66.3921V18.6H66.2481C65.9121 19.336 65.3921 19.96 64.6881 20.472C64.0001 20.968 63.1521 21.216 62.1441 21.216C61.0881 21.216 60.2081 20.96 59.5041 20.448C58.8001 19.936 58.2801 19.272 57.9441 18.456C57.6241 17.64 57.4641 16.752 57.4641 15.792V8.352H59.5281V15.528C59.5281 16.76 59.8401 17.712 60.4641 18.384C61.0881 19.04 61.9041 19.368 62.9121 19.368C63.9681 19.368 64.8081 19.016 65.4321 18.312C66.0721 17.592 66.3921 16.664 66.3921 15.528V8.352H68.4801V21ZM77.2296 21.168C75.9336 21.168 74.8376 20.856 73.9416 20.232C73.0616 19.608 72.4056 18.792 71.9736 17.784C71.5416 16.776 71.3256 15.712 71.3256 14.592C71.3256 13.456 71.5416 12.392 71.9736 11.4C72.4056 10.392 73.0696 9.576 73.9656 8.952C74.8616 8.328 75.9576 8.016 77.2536 8.016C78.9496 8.016 80.3016 8.584 81.3096 9.72C82.3336 10.856 82.8456 12.488 82.8456 14.616V15.192H73.3896V15.36C73.3896 16.064 73.5496 16.728 73.8696 17.352C74.1896 17.976 74.6376 18.48 75.2136 18.864C75.7896 19.248 76.4536 19.44 77.2056 19.44C78.0216 19.44 78.7256 19.232 79.3176 18.816C79.9096 18.4 80.3496 17.84 80.6376 17.136H82.6776C82.3416 18.288 81.7096 19.248 80.7816 20.016C79.8696 20.784 78.6856 21.168 77.2296 21.168ZM80.8056 13.728C80.7416 12.288 80.3896 11.248 79.7496 10.608C79.1096 9.968 78.2696 9.648 77.2296 9.648C76.0936 9.648 75.1896 10.024 74.5176 10.776C73.8456 11.528 73.4856 12.512 73.4376 13.728H80.8056ZM76.3656 3.264H78.1656L81.3096 6.768H79.2456L77.3016 4.608H77.2056L75.2616 6.768H73.2216L76.3656 3.264ZM80.1576 3.768L82.5096 -0.528H84.7176L81.8136 3.768H80.1576Z" fill="#09090B"/>
<defs>
<linearGradient id="paint0_linear_1_32" x1="3.77557" y1="5.91571" x2="5.23185" y2="21.5589" gradientUnits="userSpaceOnUse">
<stop stop-color="#18E299"/>
<stop offset="1" stop-color="#15803D"/>
</linearGradient>
<linearGradient id="paint1_linear_1_32" x1="12.1711" y1="-0.718425" x2="10.1897" y2="22.9832" gradientUnits="userSpaceOnUse">
<stop stop-color="#16A34A"/>
<stop offset="1" stop-color="#4ADE80"/>
</linearGradient>
<linearGradient id="paint2_linear_1_32" x1="23.1327" y1="15.353" x2="9.33841" y2="18.5196" gradientUnits="userSpaceOnUse">
<stop stop-color="#4ADE80"/>
<stop offset="1" stop-color="#0D9373"/>
</linearGradient>
</defs>
</svg>
